# xmcd
#
# Track frame offsets: 
#        150
#        10366
#        25992
#        38845
#        52276
#        68260
#        82103
#        95297
#        107878
#        122238
#        135482
#        149658
#
# Disc length: 2169 seconds
#
# Revision: 0
# Processed by: cddbd v1.5.2PL0 Copyright (c) Steve Scherf et al.
# Submitted via: ExactAudioCopy v1.1
#
DISCID=a908770c
DTITLE=Famous L. Renfroe - Children
DYEAR=1968
DGENRE=Gospel
TTITLE0=Introduction
TTITLE1=Children
TTITLE2=Believe
TTITLE3=Feed
TTITLE4=Reaching
TTITLE5=It's So
TTITLE6=Why Not I
TTITLE7=And Man
TTITLE8=His Love
TTITLE9=Circle
TTITLE10=War
TTITLE11=Tell
EXTD=
EXTT0=
EXTT1=
EXTT2=
EXTT3=
EXTT4=
EXTT5=
EXTT6=
EXTT7=
EXTT8=
EXTT9=
EXTT10=
EXTT11=
PLAYORDER=
